# xmcd
#
# Track frame offsets:
#	150
#	17460
#	33646
#	51489
#	68487
#	84310
#	105972
#	117494
#	137894
#	152516
#	165284
#	196012
#	217025
#	229618
#
# Disc length: 3248 seconds
#
# Revision: 1
# Processed by: cddbd v1.5.1PL0 Copyright (c) Steve Scherf et al.
# Submitted via: EasyCDDAExtractor 7.1.1.1
#
DISCID=ab0cae0e
DTITLE=Washington DeOliveira - Washington Yells too Loud!
DYEAR=1982
DGENRE=Christian Rap
TTITLE0=Telephone
TTITLE1=Vaccine
TTITLE2=More Hash
TTITLE3=Green Tea
TTITLE4=Poodle
TTITLE5=Washington's a Goon!
TTITLE6=Pathfinder
TTITLE7=Shiny Shoes
TTITLE8=Groan
TTITLE9=Pond Scum
TTITLE10=Rahma's the Coolest
TTITLE11=Just Make Up the Data
TTITLE12=Magic 106.7
TTITLE13=After the Hurricane
EXTD=
EXTT0=
EXTT1=
EXTT2=
EXTT3=
EXTT4=
EXTT5=
EXTT6=
EXTT7=
EXTT8=
EXTT9=
EXTT10=
EXTT11=
EXTT12=
EXTT13=
PLAYORDER=
